<?xml version="1.0" encoding="UTF-8" standalone="no"?>
<!DOCTYPE svg PUBLIC "-//W3C//DTD SVG 1.1//EN"
 "http://www.w3.org/Graphics/SVG/1.1/DTD/svg11.dtd">
<!-- Generated by graphviz version 14.1.1 (20251213.1925)
 -->
<!-- Title: FlowchartVertical Pages: 1 -->
<svg width="461pt" height="861pt"
 viewBox="0.00 0.00 461.00 861.00" xmlns="http://www.w3.org/2000/svg" xmlns:xlink="http://www.w3.org/1999/xlink">
<g id="graph0" class="graph" transform="scale(1 1) rotate(0) translate(18 842.95)">
<title>FlowchartVertical</title>
<polygon fill="white" stroke="none" points="-18,18 -18,-842.95 442.6,-842.95 442.6,18 -18,18"/>
<!-- input -->
<g id="node1" class="node">
<title>input</title>
<path fill="#f5f5f5" stroke="#2b2b2b" d="M316.1,-824.95C316.1,-824.95 172.25,-824.95 172.25,-824.95 166.25,-824.95 160.25,-818.95 160.25,-812.95 160.25,-812.95 160.25,-764.18 160.25,-764.18 160.25,-758.18 166.25,-752.18 172.25,-752.18 172.25,-752.18 316.1,-752.18 316.1,-752.18 322.1,-752.18 328.1,-758.18 328.1,-764.18 328.1,-764.18 328.1,-812.95 328.1,-812.95 328.1,-818.95 322.1,-824.95 316.1,-824.95"/>
<text xml:space="preserve" text-anchor="middle" x="244.18" y="-807.79" font-family="Times New Roman" font-size="12.00">FiveThirtyEight Polling Data</text>
<text xml:space="preserve" text-anchor="middle" x="244.18" y="-792.04" font-family="Times New Roman" font-size="12.00">(CSV Snapshot)</text>
<text xml:space="preserve" text-anchor="middle" x="244.18" y="-762.29" font-family="Times New Roman" font-size="12.00">data/raw/</text>
</g>
<!-- airflow -->
<g id="node2" class="node">
<title>airflow</title>
<path fill="#e8f2ff" stroke="#2b2b2b" d="M303.73,-720.18C303.73,-720.18 184.62,-720.18 184.62,-720.18 178.62,-720.18 172.62,-714.18 172.62,-708.18 172.62,-708.18 172.62,-689.16 172.62,-689.16 172.62,-683.16 178.62,-677.16 184.62,-677.16 184.62,-677.16 303.73,-677.16 303.73,-677.16 309.73,-677.16 315.73,-683.16 315.73,-689.16 315.73,-689.16 315.73,-708.18 315.73,-708.18 315.73,-714.18 309.73,-720.18 303.73,-720.18"/>
<text xml:space="preserve" text-anchor="middle" x="244.18" y="-703.02" font-family="Times New Roman" font-size="12.00">Apache Airflow DAG</text>
<text xml:space="preserve" text-anchor="middle" x="244.18" y="-687.27" font-family="Times New Roman" font-size="12.00">polling_intelligence_etl</text>
</g>
<!-- input&#45;&gt;airflow -->
<g id="edge1" class="edge">
<title>input&#45;&gt;airflow</title>
<path fill="none" stroke="#2b2b2b" stroke-width="1.2" d="M244.18,-751.74C244.18,-751.74 244.18,-730.43 244.18,-730.43"/>
<polygon fill="#2b2b2b" stroke="#2b2b2b" stroke-width="1.2" points="246.98,-730.43 244.18,-722.43 241.38,-730.43 246.98,-730.43"/>
</g>
<!-- ingest -->
<g id="node3" class="node">
<title>ingest</title>
<path fill="white" stroke="#2b2b2b" d="M296.23,-645.16C296.23,-645.16 192.12,-645.16 192.12,-645.16 186.12,-645.16 180.12,-639.16 180.12,-633.16 180.12,-633.16 180.12,-614.14 180.12,-614.14 180.12,-608.14 186.12,-602.14 192.12,-602.14 192.12,-602.14 296.23,-602.14 296.23,-602.14 302.23,-602.14 308.23,-608.14 308.23,-614.14 308.23,-614.14 308.23,-633.16 308.23,-633.16 308.23,-639.16 302.23,-645.16 296.23,-645.16"/>
<text xml:space="preserve" text-anchor="middle" x="244.18" y="-628" font-family="Times New Roman" font-size="12.00">Ingestion</text>
<text xml:space="preserve" text-anchor="middle" x="244.18" y="-612.25" font-family="Times New Roman" font-size="12.00">Load polling dataset</text>
</g>
<!-- airflow&#45;&gt;ingest -->
<g id="edge2" class="edge">
<title>airflow&#45;&gt;ingest</title>
<path fill="none" stroke="#2b2b2b" stroke-width="1.2" d="M244.18,-676.97C244.18,-676.97 244.18,-655.38 244.18,-655.38"/>
<polygon fill="#2b2b2b" stroke="#2b2b2b" stroke-width="1.2" points="246.98,-655.38 244.18,-647.38 241.38,-655.38 246.98,-655.38"/>
</g>
<!-- clean -->
<g id="node4" class="node">
<title>clean</title>
<path fill="white" stroke="#2b2b2b" d="M316.48,-570.14C316.48,-570.14 171.88,-570.14 171.88,-570.14 165.88,-570.14 159.88,-564.14 159.88,-558.14 159.88,-558.14 159.88,-523.37 159.88,-523.37 159.88,-517.37 165.88,-511.37 171.88,-511.37 171.88,-511.37 316.48,-511.37 316.48,-511.37 322.48,-511.37 328.48,-517.37 328.48,-523.37 328.48,-523.37 328.48,-558.14 328.48,-558.14 328.48,-564.14 322.48,-570.14 316.48,-570.14"/>
<text xml:space="preserve" text-anchor="middle" x="244.18" y="-552.98" font-family="Times New Roman" font-size="12.00">Cleaning &amp; Standardization</text>
<text xml:space="preserve" text-anchor="middle" x="244.18" y="-537.23" font-family="Times New Roman" font-size="12.00">Date parsing, null handling,</text>
<text xml:space="preserve" text-anchor="middle" x="244.18" y="-521.48" font-family="Times New Roman" font-size="12.00">data normalization</text>
</g>
<!-- ingest&#45;&gt;clean -->
<g id="edge3" class="edge">
<title>ingest&#45;&gt;clean</title>
<path fill="none" stroke="#2b2b2b" stroke-width="1.2" d="M244.18,-601.87C244.18,-601.87 244.18,-580.31 244.18,-580.31"/>
<polygon fill="#2b2b2b" stroke="#2b2b2b" stroke-width="1.2" points="246.98,-580.31 244.18,-572.31 241.38,-580.31 246.98,-580.31"/>
</g>
<!-- marts -->
<g id="node5" class="node">
<title>marts</title>
<path fill="white" stroke="#2b2b2b" d="M254.1,-479.37C254.1,-479.37 116.25,-479.37 116.25,-479.37 110.25,-479.37 104.25,-473.37 104.25,-467.37 104.25,-467.37 104.25,-432.6 104.25,-432.6 104.25,-426.6 110.25,-420.6 116.25,-420.6 116.25,-420.6 254.1,-420.6 254.1,-420.6 260.1,-420.6 266.1,-426.6 266.1,-432.6 266.1,-432.6 266.1,-467.37 266.1,-467.37 266.1,-473.37 260.1,-479.37 254.1,-479.37"/>
<text xml:space="preserve" text-anchor="middle" x="185.18" y="-462.21" font-family="Times New Roman" font-size="12.00">Analytics Mart Creation</text>
<text xml:space="preserve" text-anchor="middle" x="185.18" y="-446.46" font-family="Times New Roman" font-size="12.00">State trends, transparency,</text>
<text xml:space="preserve" text-anchor="middle" x="185.18" y="-430.71" font-family="Times New Roman" font-size="12.00">candidate analysis</text>
</g>
<!-- clean&#45;&gt;marts -->
<g id="edge4" class="edge">
<title>clean&#45;&gt;marts</title>
<path fill="none" stroke="#2b2b2b" stroke-width="1.2" d="M212.99,-511.03C212.99,-511.03 212.99,-489.59 212.99,-489.59"/>
<polygon fill="#2b2b2b" stroke="#2b2b2b" stroke-width="1.2" points="215.79,-489.59 212.99,-481.59 210.19,-489.59 215.79,-489.59"/>
</g>
<!-- processed -->
<g id="node7" class="node">
<title>processed</title>
<path fill="#f0fff0" stroke="#2b2b2b" d="M412.6,-313.58C412.6,-313.58 319.75,-313.58 319.75,-313.58 313.75,-313.58 307.75,-307.58 307.75,-301.58 307.75,-301.58 307.75,-268.56 307.75,-268.56 307.75,-262.56 313.75,-256.56 319.75,-256.56 319.75,-256.56 412.6,-256.56 412.6,-256.56 418.6,-256.56 424.6,-262.56 424.6,-268.56 424.6,-268.56 424.6,-301.58 424.6,-301.58 424.6,-307.58 418.6,-313.58 412.6,-313.58"/>
<text xml:space="preserve" text-anchor="middle" x="366.18" y="-296.42" font-family="Times New Roman" font-size="12.00">Processed Dataset</text>
<text xml:space="preserve" text-anchor="middle" x="366.18" y="-266.67" font-family="Times New Roman" font-size="12.00">data/processed/</text>
</g>
<!-- clean&#45;&gt;processed -->
<g id="edge6" class="edge">
<title>clean&#45;&gt;processed</title>
<path fill="none" stroke="#2b2b2b" stroke-width="1.2" d="M318.11,-510.92C318.11,-510.92 318.11,-323.74 318.11,-323.74"/>
<polygon fill="#2b2b2b" stroke="#2b2b2b" stroke-width="1.2" points="320.91,-323.74 318.11,-315.74 315.31,-323.74 320.91,-323.74"/>
</g>
<!-- features -->
<g id="node6" class="node">
<title>features</title>
<path fill="white" stroke="#2b2b2b" d="M242.48,-388.6C242.48,-388.6 127.88,-388.6 127.88,-388.6 121.88,-388.6 115.88,-382.6 115.88,-376.6 115.88,-376.6 115.88,-357.58 115.88,-357.58 115.88,-351.58 121.88,-345.58 127.88,-345.58 127.88,-345.58 242.48,-345.58 242.48,-345.58 248.48,-345.58 254.48,-351.58 254.48,-357.58 254.48,-357.58 254.48,-376.6 254.48,-376.6 254.48,-382.6 248.48,-388.6 242.48,-388.6"/>
<text xml:space="preserve" text-anchor="middle" x="185.18" y="-371.44" font-family="Times New Roman" font-size="12.00">Feature Engineering</text>
<text xml:space="preserve" text-anchor="middle" x="185.18" y="-355.69" font-family="Times New Roman" font-size="12.00">ML&#45;ready feature table</text>
</g>
<!-- marts&#45;&gt;features -->
<g id="edge5" class="edge">
<title>marts&#45;&gt;features</title>
<path fill="none" stroke="#2b2b2b" stroke-width="1.2" d="M185.18,-420.53C185.18,-420.53 185.18,-398.71 185.18,-398.71"/>
<polygon fill="#2b2b2b" stroke="#2b2b2b" stroke-width="1.2" points="187.98,-398.71 185.18,-390.71 182.38,-398.71 187.98,-398.71"/>
</g>
<!-- mart_storage -->
<g id="node8" class="node">
<title>mart_storage</title>
<path fill="#f0fff0" stroke="#2b2b2b" d="M88.35,-223.69C88.35,-223.69 12,-223.69 12,-223.69 6,-223.69 0,-217.69 0,-211.69 0,-211.69 0,-178.67 0,-178.67 0,-172.67 6,-166.67 12,-166.67 12,-166.67 88.35,-166.67 88.35,-166.67 94.35,-166.67 100.35,-172.67 100.35,-178.67 100.35,-178.67 100.35,-211.69 100.35,-211.69 100.35,-217.69 94.35,-223.69 88.35,-223.69"/>
<text xml:space="preserve" text-anchor="middle" x="50.18" y="-206.53" font-family="Times New Roman" font-size="12.00">Analytics Marts</text>
<text xml:space="preserve" text-anchor="middle" x="50.18" y="-176.78" font-family="Times New Roman" font-size="12.00">data/marts/</text>
</g>
<!-- marts&#45;&gt;mart_storage -->
<g id="edge7" class="edge">
<title>marts&#45;&gt;mart_storage</title>
<path fill="none" stroke="#2b2b2b" stroke-width="1.2" d="M103.8,-450C72.39,-450 43.88,-450 43.88,-450 43.88,-450 43.88,-233.73 43.88,-233.73"/>
<polygon fill="#2b2b2b" stroke="#2b2b2b" stroke-width="1.2" points="46.68,-233.73 43.88,-225.73 41.08,-233.73 46.68,-233.73"/>
</g>
<!-- feature_storage -->
<g id="node9" class="node">
<title>feature_storage</title>
<path fill="#f0fff0" stroke="#2b2b2b" d="M270.6,-313.58C270.6,-313.58 99.75,-313.58 99.75,-313.58 93.75,-313.58 87.75,-307.58 87.75,-301.58 87.75,-301.58 87.75,-268.56 87.75,-268.56 87.75,-262.56 93.75,-256.56 99.75,-256.56 99.75,-256.56 270.6,-256.56 270.6,-256.56 276.6,-256.56 282.6,-262.56 282.6,-268.56 282.6,-268.56 282.6,-301.58 282.6,-301.58 282.6,-307.58 276.6,-313.58 270.6,-313.58"/>
<text xml:space="preserve" text-anchor="middle" x="185.18" y="-296.42" font-family="Times New Roman" font-size="12.00">Feature Mart</text>
<text xml:space="preserve" text-anchor="middle" x="185.18" y="-266.67" font-family="Times New Roman" font-size="12.00">data/marts/mart_ml_features.csv</text>
</g>
<!-- features&#45;&gt;feature_storage -->
<g id="edge8" class="edge">
<title>features&#45;&gt;feature_storage</title>
<path fill="none" stroke="#2b2b2b" stroke-width="1.2" d="M185.18,-345.11C185.18,-345.11 185.18,-323.72 185.18,-323.72"/>
<polygon fill="#2b2b2b" stroke="#2b2b2b" stroke-width="1.2" points="187.98,-323.72 185.18,-315.72 182.38,-323.72 187.98,-323.72"/>
</g>
<!-- prediction -->
<g id="node10" class="node">
<title>prediction</title>
<path fill="#fff2e8" stroke="#2b2b2b" d="M279.35,-224.56C279.35,-224.56 137,-224.56 137,-224.56 131,-224.56 125,-218.56 125,-212.56 125,-212.56 125,-177.79 125,-177.79 125,-171.79 131,-165.79 137,-165.79 137,-165.79 279.35,-165.79 279.35,-165.79 285.35,-165.79 291.35,-171.79 291.35,-177.79 291.35,-177.79 291.35,-212.56 291.35,-212.56 291.35,-218.56 285.35,-224.56 279.35,-224.56"/>
<text xml:space="preserve" text-anchor="middle" x="208.18" y="-207.4" font-family="Times New Roman" font-size="12.00">Apache Airflow DAG</text>
<text xml:space="preserve" text-anchor="middle" x="208.18" y="-191.65" font-family="Times New Roman" font-size="12.00">polling_baseline_prediction</text>
<text xml:space="preserve" text-anchor="middle" x="208.18" y="-175.9" font-family="Times New Roman" font-size="12.00">(Batch Scoring)</text>
</g>
<!-- processed&#45;&gt;prediction -->
<g id="edge9" class="edge">
<title>processed&#45;&gt;prediction</title>
<path fill="none" stroke="#2b2b2b" stroke-width="1.2" d="M307.37,-285C295.71,-285 286.98,-285 286.98,-285 286.98,-285 286.98,-234.4 286.98,-234.4"/>
<polygon fill="#2b2b2b" stroke="#2b2b2b" stroke-width="1.2" points="289.78,-234.4 286.98,-226.4 284.18,-234.4 289.78,-234.4"/>
</g>
<!-- dashboard -->
<g id="node12" class="node">
<title>dashboard</title>
<path fill="#f3e8ff" stroke="#2b2b2b" d="M206.73,-43.02C206.73,-43.02 51.62,-43.02 51.62,-43.02 45.62,-43.02 39.63,-37.02 39.63,-31.02 39.63,-31.02 39.63,-12 39.63,-12 39.63,-6 45.63,0 51.63,0 51.63,0 206.73,0 206.73,0 212.73,0 218.73,-6 218.73,-12 218.73,-12 218.73,-31.02 218.73,-31.02 218.73,-37.02 212.73,-43.02 206.73,-43.02"/>
<text xml:space="preserve" text-anchor="middle" x="129.18" y="-25.86" font-family="Times New Roman" font-size="12.00">Streamlit Dashboard</text>
<text xml:space="preserve" text-anchor="middle" x="129.18" y="-10.11" font-family="Times New Roman" font-size="12.00">Interactive Visualization Layer</text>
</g>
<!-- mart_storage&#45;&gt;dashboard -->
<g id="edge12" class="edge">
<title>mart_storage&#45;&gt;dashboard</title>
<path fill="none" stroke="#2b2b2b" stroke-width="1.2" d="M69.99,-166.5C69.99,-166.5 69.99,-53.16 69.99,-53.16"/>
<polygon fill="#2b2b2b" stroke="#2b2b2b" stroke-width="1.2" points="72.79,-53.16 69.99,-45.16 67.19,-53.16 72.79,-53.16"/>
</g>
<!-- feature_storage&#45;&gt;prediction -->
<g id="edge10" class="edge">
<title>feature_storage&#45;&gt;prediction</title>
<path fill="none" stroke="#2b2b2b" stroke-width="1.2" d="M203.8,-256.13C203.8,-256.13 203.8,-234.8 203.8,-234.8"/>
<polygon fill="#2b2b2b" stroke="#2b2b2b" stroke-width="1.2" points="206.6,-234.8 203.8,-226.8 201,-234.8 206.6,-234.8"/>
</g>
<!-- artifacts -->
<g id="node11" class="node">
<title>artifacts</title>
<path fill="#fff2e8" stroke="#2b2b2b" d="M277.73,-133.79C277.73,-133.79 122.62,-133.79 122.62,-133.79 116.62,-133.79 110.63,-127.79 110.63,-121.79 110.63,-121.79 110.63,-87.02 110.63,-87.02 110.63,-81.02 116.63,-75.02 122.63,-75.02 122.63,-75.02 277.73,-75.02 277.73,-75.02 283.73,-75.02 289.73,-81.02 289.73,-87.02 289.73,-87.02 289.73,-121.79 289.73,-121.79 289.73,-127.79 283.73,-133.79 277.73,-133.79"/>
<text xml:space="preserve" text-anchor="middle" x="200.18" y="-116.63" font-family="Times New Roman" font-size="12.00">Prediction Artifacts</text>
<text xml:space="preserve" text-anchor="middle" x="200.18" y="-100.88" font-family="Times New Roman" font-size="12.00">reports/, assets/</text>
<text xml:space="preserve" text-anchor="middle" x="200.18" y="-85.13" font-family="Times New Roman" font-size="12.00">summary.csv, plots, winner.txt</text>
</g>
<!-- prediction&#45;&gt;artifacts -->
<g id="edge11" class="edge">
<title>prediction&#45;&gt;artifacts</title>
<path fill="none" stroke="#2b2b2b" stroke-width="1.2" d="M207.36,-165.45C207.36,-165.45 207.36,-144.01 207.36,-144.01"/>
<polygon fill="#2b2b2b" stroke="#2b2b2b" stroke-width="1.2" points="210.16,-144.01 207.36,-136.01 204.56,-144.01 210.16,-144.01"/>
</g>
<!-- artifacts&#45;&gt;dashboard -->
<g id="edge13" class="edge">
<title>artifacts&#45;&gt;dashboard</title>
<path fill="none" stroke="#2b2b2b" stroke-width="1.2" d="M164.68,-74.95C164.68,-74.95 164.68,-53.13 164.68,-53.13"/>
<polygon fill="#2b2b2b" stroke="#2b2b2b" stroke-width="1.2" points="167.48,-53.13 164.68,-45.13 161.88,-53.13 167.48,-53.13"/>
</g>
</g>
</svg>
